<svg xmlns="http://www.w3.org/2000/svg" version="1.1" xmlns:xlink="http://www.w3.org/1999/xlink" width="41" height="40"><svg xmlns="http://www.w3.org/2000/svg" version="1.1" xmlns:xlink="http://www.w3.org/1999/xlink" width="41" height="40"><svg width="41" height="40" viewBox="0 0 41 40" fill="none" xmlns="http://www.w3.org/2000/svg">
<rect width="40.24" height="39.9802" rx="8" fill="white"></rect>
<g clip-path="url(#clip0_72_2076)">
<path fill-rule="evenodd" clip-rule="evenodd" d="M33.28 11.34L21.12 4.3C20.48 3.9 19.68 3.9 19.04 4.3L7.04002 11.252C6.72002 11.412 6.56002 11.652 6.32002 11.892L12.4 15.492C12.48 15.332 12.64 15.172 12.88 15.012L19.44 11.252C19.84 11.012 20.4 11.012 20.8 11.252L22.32 12.132C22.8 12.372 22.8 13.092 22.32 13.332L16.16 16.932C15.92 17.012 15.76 17.252 15.68 17.412L18.48 19.092L25.6 14.932C26 14.692 26.56 14.692 26.96 14.932L27.36 15.172C27.6 15.332 27.76 15.492 27.92 15.732L34.16 12.292C33.92 11.892 33.68 11.572 33.28 11.332V11.34Z" fill="#3A3D55"></path>
<path fill-rule="evenodd" clip-rule="evenodd" d="M28.08 16.3002V16.6202C28.08 17.1002 27.84 17.5802 27.36 17.8202L20 22.0602V25.2602C20.24 25.2602 20.48 25.2602 20.72 25.1002L27.12 21.5002C27.6 21.2602 28.16 21.5802 28.16 22.0602V23.8202C28.16 24.3002 27.92 24.7802 27.44 25.0202L20.72 28.8602C20.48 29.0202 20.24 29.0202 19.92 29.0202V35.9802C20.32 35.9802 20.72 35.9002 21.04 35.7402L33.2 28.7002C33.84 28.3002 34.24 27.6602 34.24 26.9402V13.1722C34.24 12.8522 34.16 12.5322 34 12.2922L27.76 15.7322C28 15.8922 28.08 16.0522 28.08 16.2922V16.3002Z" fill="#242635"></path>
<path fill-rule="evenodd" clip-rule="evenodd" d="M20.08 29.02C19.84 29.02 19.68 28.94 19.44 28.86L12.88 25.1C12.48 24.86 12.16 24.38 12.16 23.9V16.22C12.16 15.98 12.24 15.66 12.4 15.5L6.32002 11.9C6.08002 12.22 6.00002 12.62 6.00002 13.02V27.02C6.00002 27.74 6.40002 28.46 7.04002 28.78L19.04 35.74C19.36 35.9 19.68 35.98 20 35.98L20.08 29.02Z" fill="#161720"></path>
<path fill-rule="evenodd" clip-rule="evenodd" d="M18.16 24.38L19.52 25.1C19.68 25.18 19.92 25.26 20.08 25.26V22.06L18.16 23.18C17.68 23.42 17.68 24.14 18.16 24.38Z" fill="#161720"></path>
<path fill-rule="evenodd" clip-rule="evenodd" d="M15.52 18.14V19.66C15.52 20.22 16.08 20.54 16.56 20.22L18.48 19.1L15.68 17.42C15.6 17.66 15.52 17.9 15.52 18.14Z" fill="#161720"></path>
</g>
<defs>
<clipPath id="clip0_72_2076">
<rect width="32.24" height="31.9802" fill="white" transform="translate(4 4)"></rect>
</clipPath>
</defs>
</svg></svg><style>@media (prefers-color-scheme: light) { :root { filter: none; } }
@media (prefers-color-scheme: dark) { :root { filter: none; } }
</style></svg>