<svg width="137" height="32" viewBox="0 0 137 32" fill="none" xmlns="http://www.w3.org/2000/svg">
<g clip-path="url(#clip0_202_566)">
<path d="M136.17 18.2477C136.17 18.6923 136.17 19.1369 136.103 19.5815H128.345C128.656 20.6486 129.478 21.4711 131.012 21.4711C131.879 21.4711 132.479 21.2043 132.813 20.6708H136.036C135.458 22.7159 133.458 24.0275 130.946 24.0275C127.522 24.0275 125.232 21.6489 125.232 18.47C125.232 15.2689 127.5 12.9125 130.901 12.9125C133.902 12.9125 136.17 15.0688 136.17 18.2477ZM130.812 15.4467C129.389 15.4467 128.589 16.2915 128.3 17.4252H133.102C132.924 16.1803 132.101 15.4467 130.812 15.4467Z" fill="#242635"/>
<path d="M123.145 8V23.7833H120.055V8H123.145Z" fill="#242635"/>
<path d="M112.643 12.9128C115.577 12.9128 117.933 15.3581 117.933 18.4481C117.933 21.5825 115.577 24.0056 112.643 24.0056C111.442 24.0056 110.442 23.6943 109.619 23.1608V23.7833H106.529V8H109.619V13.7576C110.442 13.224 111.442 12.9128 112.643 12.9128ZM112.131 21.4047C113.732 21.4047 114.888 20.0264 114.888 18.4481C114.888 16.892 113.732 15.5359 112.131 15.5359C111.22 15.5359 110.308 15.8472 109.619 16.7586V20.1598C110.308 21.0934 111.22 21.4047 112.131 21.4047Z" fill="#242635"/>
<path d="M103.813 13.1348V23.783H100.723V23.1605C99.9004 23.6941 98.9001 24.0053 97.6997 24.0053C94.7653 24.0053 92.3867 21.56 92.3867 18.47C92.3867 15.3356 94.7653 12.9125 97.6997 12.9125C98.9001 12.9125 99.9004 13.2238 100.723 13.7573V13.1348H103.813ZM98.211 21.3821C99.1224 21.3821 100.034 21.0709 100.723 20.1595V16.7583C100.034 15.8247 99.1224 15.5134 98.211 15.5134C96.5882 15.5134 95.4545 16.8917 95.4545 18.47C95.4545 20.0261 96.5882 21.3821 98.211 21.3821Z" fill="#242635"/>
<path d="M90.2875 8V23.7833H87.1975V23.1608C86.375 23.6943 85.3747 24.0056 84.1743 24.0056C81.2399 24.0056 78.8613 21.5825 78.8613 18.4481C78.8613 15.3581 81.2399 12.9128 84.1743 12.9128C85.3747 12.9128 86.375 13.224 87.1975 13.7576V8H90.2875ZM84.6856 21.4047C85.597 21.4047 86.5084 21.0934 87.1975 20.1598V16.7586C86.5084 15.8472 85.597 15.5359 84.6856 15.5359C83.0628 15.5359 81.9291 16.892 81.9291 18.4481C81.9291 20.0264 83.0628 21.4047 84.6856 21.4047Z" fill="#242635"/>
<path d="M76.7621 8V23.7833H73.6722V23.1608C72.8497 23.6943 71.8493 24.0056 70.6489 24.0056C67.7145 24.0056 65.3359 21.5825 65.3359 18.4481C65.3359 15.3581 67.7145 12.9128 70.6489 12.9128C71.8493 12.9128 72.8497 13.224 73.6722 13.7576V8H76.7621ZM71.1602 21.4047C72.0716 21.4047 72.983 21.0934 73.6722 20.1598V16.7586C72.983 15.8472 72.0716 15.5359 71.1602 15.5359C69.5374 15.5359 68.4037 16.892 68.4037 18.4481C68.4037 20.0264 69.5374 21.4047 71.1602 21.4047Z" fill="#242635"/>
<path d="M63.7262 18.2477C63.7262 18.6923 63.7262 19.1369 63.6595 19.5815H55.9013C56.2125 20.6486 57.035 21.4711 58.5688 21.4711C59.4358 21.4711 60.036 21.2043 60.3695 20.6708H63.5928C63.0148 22.7159 61.0141 24.0275 58.5022 24.0275C55.0787 24.0275 52.7891 21.6489 52.7891 18.47C52.7891 15.2689 55.0565 12.9125 58.4577 12.9125C61.4587 12.9125 63.7262 15.0688 63.7262 18.2477ZM58.3688 15.4467C56.9461 15.4467 56.1458 16.2915 55.8568 17.4252H60.6585C60.4806 16.1803 59.6581 15.4467 58.3688 15.4467Z" fill="#242635"/>
<path d="M45.8671 12.9128C48.8015 12.9128 51.1579 15.3581 51.1579 18.4481C51.1579 21.5825 48.8015 24.0056 45.8671 24.0056C44.6667 24.0056 43.6664 23.6943 42.8439 23.1608V23.7833H39.7539V8H42.8439V13.7576C43.6664 13.224 44.6667 12.9128 45.8671 12.9128ZM45.3559 21.4047C46.9564 21.4047 48.1124 20.0264 48.1124 18.4481C48.1124 16.892 46.9564 15.5359 45.3559 15.5359C44.4444 15.5359 43.533 15.8472 42.8439 16.7586V20.1598C43.533 21.0934 44.4444 21.4047 45.3559 21.4047Z" fill="#242635"/>
<path d="M32.4608 12.8013C35.0617 12.8013 37.1069 14.8243 37.1069 17.9364V23.7829H34.0169V18.2032C34.0169 16.5137 33.1944 15.6023 31.7494 15.6023C31.1048 15.6023 30.3934 15.8913 29.7487 16.7805C29.7932 17.1584 29.8377 17.5363 29.8377 17.9364V23.7829H26.7477V18.2032C26.7477 16.5137 25.9252 15.6023 24.458 15.6023C23.8578 15.6023 23.1909 15.958 22.5685 16.8027V23.7829H19.4785V13.1348H22.5685V13.7794C23.2354 13.157 23.9467 12.8013 25.1916 12.8013C26.5476 12.8013 27.7481 13.3348 28.5928 14.313C29.7265 13.2682 30.7936 12.8013 32.4608 12.8013Z" fill="#242635"/>
<path d="M9.22334 11.5789V14.8689H16.2925V17.781H9.22334V20.871H17.2039V23.7831H6V8.66675H17.2039V11.5789H9.22334Z" fill="#242635"/>
</g>
<defs>
<clipPath id="clip0_202_566">
<rect width="136.17" height="32" fill="white"/>
</clipPath>
</defs>
</svg>
