<svg width="32" height="32" viewBox="0 0 32 32" fill="none" xmlns="http://www.w3.org/2000/svg">
<path fill-rule="evenodd" clip-rule="evenodd" d="M29.2803 7.34L17.1203 0.3C16.4803 -0.1 15.6803 -0.1 15.0403 0.3L3.04031 7.252C2.72031 7.412 2.56031 7.652 2.32031 7.892L8.40031 11.492C8.48031 11.332 8.64031 11.172 8.88031 11.012L15.4403 7.252C15.8403 7.012 16.4003 7.012 16.8003 7.252L18.3203 8.132C18.8003 8.372 18.8003 9.092 18.3203 9.332L12.1603 12.932C12.0003 13 11.7603 13.252 11.6803 13.412L14.4803 15.092L21.6003 10.932C22.0003 10.692 22.5603 10.692 22.9603 10.932L23.3603 11.172C23.6003 11.332 23.7603 11.492 23.9203 11.732L30.1603 8.292C29.9203 7.892 29.6803 7.58 29.2803 7.34Z" fill="#3A3D55"/>
<path fill-rule="evenodd" clip-rule="evenodd" d="M24.0799 12.3002V12.6202C24.0799 13.1002 23.8399 13.5802 23.3599 13.8202L15.9999 18.1001V21.2602C16.2399 21.2602 16.4799 21.2602 16.7199 21.1002L23.1199 17.5002C23.5999 17.2602 24.1599 17.5802 24.1599 18.0602V19.8202C24.1599 20.3002 23.9199 20.7802 23.4399 21.0202L16.7199 24.8602C16.4799 25.0202 16.2399 25.0202 15.9199 25.0202V31.9802C16.3199 31.9802 16.7199 31.9002 17.0399 31.7402L29.1999 24.7002C29.8399 24.3002 30.2399 23.6602 30.2399 22.9402V9.1722C30.2399 8.8522 30.2399 8.57244 30.1599 8.28992L23.9099 11.72C24.0799 11.9765 24.0799 12.214 24.0799 12.2922V12.3002Z" fill="#242635"/>
<path fill-rule="evenodd" clip-rule="evenodd" d="M16.08 25.02C15.84 25.02 15.68 24.94 15.44 24.86L8.88 21.1C8.48 20.86 8.16 20.38 8.16 19.9V12.22C8.16 11.98 8.24 11.66 8.4 11.5L2.32 7.89999C2.08 8.21999 2 8.61999 2 9.01999V23.02C2 23.74 2.4 24.46 3.04 24.78L15.04 31.74C15.36 31.9 15.68 31.98 16 31.98L16.08 25.02Z" fill="#161720"/>
<path fill-rule="evenodd" clip-rule="evenodd" d="M14.1608 20.38L15.5208 21.1C15.6808 21.18 15.9208 21.26 16.0808 21.26V18.06L14.1608 19.18C13.6808 19.42 13.6808 20.14 14.1608 20.38Z" fill="#161720"/>
<path fill-rule="evenodd" clip-rule="evenodd" d="M11.5195 14.14V15.66C11.5195 16.22 12.0795 16.54 12.5595 16.22L14.4995 15.0802L11.6795 13.4101C11.5995 13.6501 11.5195 13.9 11.5195 14.14Z" fill="#161720"/>
</svg>
