<svg width="169" height="32" viewBox="0 0 169 32" fill="none" xmlns="http://www.w3.org/2000/svg">
<path fill-rule="evenodd" clip-rule="evenodd" d="M29.2803 7.34L17.1203 0.3C16.4803 -0.1 15.6803 -0.1 15.0403 0.3L3.04031 7.252C2.72031 7.412 2.56031 7.652 2.32031 7.892L8.40031 11.492C8.48031 11.332 8.64031 11.172 8.88031 11.012L15.4403 7.252C15.8403 7.012 16.4003 7.012 16.8003 7.252L18.3203 8.132C18.8003 8.372 18.8003 9.092 18.3203 9.332L12.1603 12.932C12.0003 13 11.7603 13.252 11.6803 13.412L14.4803 15.092L21.6003 10.932C22.0003 10.692 22.5603 10.692 22.9603 10.932L23.3603 11.172C23.6003 11.332 23.7603 11.492 23.9203 11.732L30.1603 8.292C29.9203 7.892 29.6803 7.58 29.2803 7.34Z" fill="#3A3D55"/>
<path fill-rule="evenodd" clip-rule="evenodd" d="M24.0799 12.3002V12.6202C24.0799 13.1002 23.8399 13.5802 23.3599 13.8202L15.9999 18.1001V21.2602C16.2399 21.2602 16.4799 21.2602 16.7199 21.1002L23.1199 17.5002C23.5999 17.2602 24.1599 17.5802 24.1599 18.0602V19.8202C24.1599 20.3002 23.9199 20.7802 23.4399 21.0202L16.7199 24.8602C16.4799 25.0202 16.2399 25.0202 15.9199 25.0202V31.9802C16.3199 31.9802 16.7199 31.9002 17.0399 31.7402L29.1999 24.7002C29.8399 24.3002 30.2399 23.6602 30.2399 22.9402V9.1722C30.2399 8.8522 30.2399 8.57244 30.1599 8.28992L23.9099 11.72C24.0799 11.9765 24.0799 12.214 24.0799 12.2922V12.3002Z" fill="#242635"/>
<path fill-rule="evenodd" clip-rule="evenodd" d="M16.08 25.02C15.84 25.02 15.68 24.94 15.44 24.86L8.88 21.1C8.48 20.86 8.16 20.38 8.16 19.9V12.22C8.16 11.98 8.24 11.66 8.4 11.5L2.32 7.89999C2.08 8.21999 2 8.61999 2 9.01999V23.02C2 23.74 2.4 24.46 3.04 24.78L15.04 31.74C15.36 31.9 15.68 31.98 16 31.98L16.08 25.02Z" fill="#161720"/>
<path fill-rule="evenodd" clip-rule="evenodd" d="M14.1608 20.38L15.5208 21.1C15.6808 21.18 15.9208 21.26 16.0808 21.26V18.06L14.1608 19.18C13.6808 19.42 13.6808 20.14 14.1608 20.38Z" fill="#161720"/>
<path fill-rule="evenodd" clip-rule="evenodd" d="M11.5195 14.14V15.66C11.5195 16.22 12.0795 16.54 12.5595 16.22L14.4995 15.0802L11.6795 13.4101C11.5995 13.6501 11.5195 13.9 11.5195 14.14Z" fill="#161720"/>
<g clip-path="url(#clip0_202_587)">
<path d="M168.17 18.2477C168.17 18.6923 168.17 19.1369 168.103 19.5815H160.345C160.656 20.6485 161.478 21.471 163.012 21.471C163.879 21.471 164.479 21.2043 164.813 20.6708H168.036C167.458 22.7159 165.458 24.0275 162.946 24.0275C159.522 24.0275 157.232 21.6489 157.232 18.47C157.232 15.2689 159.5 12.9125 162.901 12.9125C165.902 12.9125 168.17 15.0688 168.17 18.2477ZM162.812 15.4467C161.389 15.4467 160.589 16.2915 160.3 17.4252H165.102C164.924 16.1803 164.101 15.4467 162.812 15.4467Z" fill="#242635"/>
<path d="M155.145 7.99998V23.7832H152.055V7.99998H155.145Z" fill="#242635"/>
<path d="M144.643 12.9128C147.577 12.9128 149.933 15.3581 149.933 18.4481C149.933 21.5825 147.577 24.0055 144.643 24.0055C143.442 24.0055 142.442 23.6943 141.619 23.1608V23.7832H138.529V7.99998H141.619V13.7575C142.442 13.224 143.442 12.9128 144.643 12.9128ZM144.131 21.4046C145.732 21.4046 146.888 20.0264 146.888 18.4481C146.888 16.892 145.732 15.5359 144.131 15.5359C143.22 15.5359 142.308 15.8472 141.619 16.7586V20.1598C142.308 21.0934 143.22 21.4046 144.131 21.4046Z" fill="#242635"/>
<path d="M135.813 13.1348V23.783H132.723V23.1605C131.9 23.694 130.9 24.0053 129.7 24.0053C126.765 24.0053 124.387 21.56 124.387 18.47C124.387 15.3356 126.765 12.9125 129.7 12.9125C130.9 12.9125 131.9 13.2237 132.723 13.7573V13.1348H135.813ZM130.211 21.3821C131.122 21.3821 132.034 21.0709 132.723 20.1595V16.7583C132.034 15.8246 131.122 15.5134 130.211 15.5134C128.588 15.5134 127.454 16.8917 127.454 18.47C127.454 20.0261 128.588 21.3821 130.211 21.3821Z" fill="#242635"/>
<path d="M122.288 7.99998V23.7832H119.198V23.1608C118.375 23.6943 117.375 24.0055 116.174 24.0055C113.24 24.0055 110.861 21.5825 110.861 18.4481C110.861 15.3581 113.24 12.9128 116.174 12.9128C117.375 12.9128 118.375 13.224 119.198 13.7575V7.99998H122.288ZM116.686 21.4046C117.597 21.4046 118.508 21.0934 119.198 20.1598V16.7586C118.508 15.8472 117.597 15.5359 116.686 15.5359C115.063 15.5359 113.929 16.892 113.929 18.4481C113.929 20.0264 115.063 21.4046 116.686 21.4046Z" fill="#242635"/>
<path d="M108.762 7.99998V23.7832H105.672V23.1608C104.85 23.6943 103.849 24.0055 102.649 24.0055C99.7145 24.0055 97.3359 21.5825 97.3359 18.4481C97.3359 15.3581 99.7145 12.9128 102.649 12.9128C103.849 12.9128 104.85 13.224 105.672 13.7575V7.99998H108.762ZM103.16 21.4046C104.072 21.4046 104.983 21.0934 105.672 20.1598V16.7586C104.983 15.8472 104.072 15.5359 103.16 15.5359C101.537 15.5359 100.404 16.892 100.404 18.4481C100.404 20.0264 101.537 21.4046 103.16 21.4046Z" fill="#242635"/>
<path d="M95.7262 18.2477C95.7262 18.6923 95.7262 19.1369 95.6595 19.5815H87.9013C88.2125 20.6485 89.035 21.471 90.5688 21.471C91.4358 21.471 92.036 21.2043 92.3695 20.6708H95.5928C95.0148 22.7159 93.0141 24.0275 90.5022 24.0275C87.0787 24.0275 84.7891 21.6489 84.7891 18.47C84.7891 15.2689 87.0565 12.9125 90.4577 12.9125C93.4587 12.9125 95.7262 15.0688 95.7262 18.2477ZM90.3688 15.4467C88.9461 15.4467 88.1458 16.2915 87.8568 17.4252H92.6585C92.4806 16.1803 91.6581 15.4467 90.3688 15.4467Z" fill="#242635"/>
<path d="M77.8671 12.9128C80.8015 12.9128 83.1579 15.3581 83.1579 18.4481C83.1579 21.5825 80.8015 24.0055 77.8671 24.0055C76.6667 24.0055 75.6664 23.6943 74.8439 23.1608V23.7832H71.7539V7.99998H74.8439V13.7575C75.6664 13.224 76.6667 12.9128 77.8671 12.9128ZM77.3559 21.4046C78.9564 21.4046 80.1124 20.0264 80.1124 18.4481C80.1124 16.892 78.9564 15.5359 77.3559 15.5359C76.4444 15.5359 75.533 15.8472 74.8439 16.7586V20.1598C75.533 21.0934 76.4444 21.4046 77.3559 21.4046Z" fill="#242635"/>
<path d="M64.4608 12.8013C67.0617 12.8013 69.1069 14.8242 69.1069 17.9364V23.7829H66.0169V18.2032C66.0169 16.5137 65.1944 15.6023 63.7494 15.6023C63.1048 15.6023 62.3934 15.8913 61.7487 16.7805C61.7932 17.1584 61.8377 17.5363 61.8377 17.9364V23.7829H58.7477V18.2032C58.7477 16.5137 57.9252 15.6023 56.458 15.6023C55.8578 15.6023 55.1909 15.958 54.5685 16.8027V23.7829H51.4785V13.1348H54.5685V13.7794C55.2354 13.157 55.9467 12.8013 57.1916 12.8013C58.5476 12.8013 59.7481 13.3348 60.5928 14.313C61.7265 13.2681 62.7936 12.8013 64.4608 12.8013Z" fill="#242635"/>
<path d="M41.2233 11.5789V14.8689H48.2925V17.781H41.2233V20.871H49.2039V23.7831H38V8.66673H49.2039V11.5789H41.2233Z" fill="#242635"/>
</g>
<defs>
<clipPath id="clip0_202_587">
<rect width="136.17" height="32" fill="white" transform="translate(32)"/>
</clipPath>
</defs>
</svg>
