<svg width="16" height="16" viewBox="0 0 16 16" fill="none" xmlns="http://www.w3.org/2000/svg">
<path d="M7.99996 1.33331L8.07796 1.33798C8.22677 1.35553 8.36533 1.4227 8.47128 1.52865C8.57724 1.63461 8.64441 1.77317 8.66196 1.92198L8.66663 1.99998V4.66665L8.66996 4.76665C8.69382 5.08409 8.83046 5.38253 9.0552 5.608C9.27993 5.83347 9.57792 5.97109 9.89529 5.99598L9.99996 5.99998H12.6666L12.7446 6.00465C12.8934 6.0222 13.032 6.08937 13.138 6.19532C13.2439 6.30128 13.3111 6.43984 13.3286 6.58865L13.3333 6.66665V12.6666C13.3333 13.1768 13.1384 13.6677 12.7884 14.0388C12.4385 14.41 11.9599 14.6334 11.4506 14.6633L11.3333 14.6666H4.66663C4.15649 14.6667 3.66562 14.4718 3.29445 14.1218C2.92329 13.7718 2.69989 13.2932 2.66996 12.784L2.66663 12.6666V3.33331C2.6666 2.82317 2.86151 2.3323 3.21148 1.96114C3.56145 1.58998 4.04003 1.36657 4.54929 1.33665L4.66663 1.33331H7.99996ZM9.99996 10.6666H5.99996C5.82315 10.6666 5.65358 10.7369 5.52855 10.8619C5.40353 10.9869 5.33329 11.1565 5.33329 11.3333C5.33329 11.5101 5.40353 11.6797 5.52855 11.8047C5.65358 11.9297 5.82315 12 5.99996 12H9.99996C10.1768 12 10.3463 11.9297 10.4714 11.8047C10.5964 11.6797 10.6666 11.5101 10.6666 11.3333C10.6666 11.1565 10.5964 10.9869 10.4714 10.8619C10.3463 10.7369 10.1768 10.6666 9.99996 10.6666ZM9.99996 7.99998H5.99996C5.82315 7.99998 5.65358 8.07022 5.52855 8.19524C5.40353 8.32027 5.33329 8.48984 5.33329 8.66665C5.33329 8.84346 5.40353 9.01303 5.52855 9.13805C5.65358 9.26308 5.82315 9.33331 5.99996 9.33331H9.99996C10.1768 9.33331 10.3463 9.26308 10.4714 9.13805C10.5964 9.01303 10.6666 8.84346 10.6666 8.66665C10.6666 8.48984 10.5964 8.32027 10.4714 8.19524C10.3463 8.07022 10.1768 7.99998 9.99996 7.99998ZM6.66663 5.33331H5.99996C5.82315 5.33331 5.65358 5.40355 5.52855 5.52858C5.40353 5.6536 5.33329 5.82317 5.33329 5.99998C5.33329 6.17679 5.40353 6.34636 5.52855 6.47138C5.65358 6.59641 5.82315 6.66665 5.99996 6.66665H6.66663C6.84344 6.66665 7.01301 6.59641 7.13803 6.47138C7.26305 6.34636 7.33329 6.17679 7.33329 5.99998C7.33329 5.82317 7.26305 5.6536 7.13803 5.52858C7.01301 5.40355 6.84344 5.33331 6.66663 5.33331Z" fill="#2F2F2F"/>
<path d="M12.6666 4.66666H9.99997L9.99931 1.99933L12.6666 4.66666Z" fill="#2F2F2F"/>
</svg>
