<svg width="16" height="16" viewBox="0 0 16 16" fill="none" xmlns="http://www.w3.org/2000/svg">
<path d="M1.33301 3.99969V2.66668C1.33301 2.29849 1.63181 1.99969 2 1.99969H2.66699C3.03503 1.99986 3.33301 2.2986 3.33301 2.66668C3.33301 3.03476 3.03503 3.33349 2.66699 3.33367V3.99969C2.66699 4.88366 3.01756 5.732 3.64258 6.35711C4.2677 6.98223 5.11595 7.33367 6 7.33367H8C8.36808 7.33367 8.66682 7.63165 8.66699 7.99969C8.66699 8.36788 8.36819 8.66668 8 8.66668H6C4.76232 8.66668 3.57537 8.17466 2.7002 7.29949C1.82513 6.42434 1.33301 5.23729 1.33301 3.99969ZM5.12695 2.76922C5.28641 2.43749 5.68483 2.29747 6.0166 2.45672C6.97492 2.91737 7.74833 3.69078 8.20898 4.6491C8.3685 4.98094 8.22833 5.37924 7.89648 5.53875C7.56475 5.69805 7.16637 5.55885 7.00684 5.22722C6.67736 4.5418 6.12485 3.98838 5.43945 3.65886C5.10764 3.49937 4.96752 3.10104 5.12695 2.76922Z" fill="#2F2F2F"/>
<path d="M8.3623 7.53745C8.71485 7.64364 8.91479 8.01596 8.80859 8.3685C8.71442 8.68115 8.66674 9.00585 8.66699 9.33237L10 9.33334C10.3682 9.33334 10.667 9.63215 10.667 10.0003C10.6668 10.3684 10.3681 10.6664 10 10.6664H8C7.63192 10.6664 7.33318 10.3684 7.33301 10.0003C7.33301 9.87804 7.36928 9.76488 7.42676 9.66635C7.36962 9.5682 7.33318 9.45606 7.33301 9.33432C7.3326 8.877 7.39936 8.42162 7.53125 7.98373C7.63744 7.63121 8.00978 7.43128 8.3623 7.53745ZM13.333 6.00034H11.999C11.5625 5.9998 11.13 6.08461 10.7266 6.25131C10.3231 6.41803 9.95627 6.66347 9.64746 6.97202C9.38697 7.23185 8.96518 7.23136 8.70508 6.97104C8.44503 6.71068 8.44496 6.28889 8.70508 6.02866C9.13789 5.59621 9.65231 5.25353 10.2178 5.01987C10.783 4.78632 11.3885 4.66666 12 4.66733L14 4.66635C14.3682 4.66635 14.667 4.96516 14.667 5.33334V6.00034C14.6669 7.67954 13.7783 9.15108 12.4502 9.97202C12.1371 10.1653 11.7268 10.0682 11.5332 9.75522C11.3396 9.44209 11.436 9.03088 11.749 8.83725C12.6413 8.2857 13.2532 7.3277 13.3262 6.22299L13.333 6.00034Z" fill="#2F2F2F"/>
<path d="M7.33301 13.333V8.00001C7.33301 7.63182 7.63181 7.33367 8 7.33367C8.36808 7.33367 8.66682 7.63165 8.66699 7.99969V13.333C8.66699 13.7012 8.36819 14 8 14C7.63181 14 7.33301 13.7012 7.33301 13.333Z" fill="#2F2F2F"/>
<path d="M1.52832 1.52833C1.78867 1.26798 2.21133 1.26798 2.47168 1.52833L14.4717 13.5283C14.732 13.7887 14.732 14.2113 14.4717 14.4717C14.2113 14.732 13.7887 14.732 13.5283 14.4717L1.52832 2.47169C1.26797 2.21134 1.26797 1.78868 1.52832 1.52833Z" fill="#2F2F2F"/>
</svg>
