<svg width="16" height="16" viewBox="0 0 16 16" fill="none" xmlns="http://www.w3.org/2000/svg">
<path d="M6.69329 2.87C8.15663 2.42534 9.76996 2.72067 10.9333 3.654C11.8573 4.39267 12.392 5.44467 12.4346 6.54734L12.4366 6.68867L12.4973 6.69067C14.0306 6.762 15.2593 7.998 15.3306 9.53734L15.3333 9.678C15.3333 11.2827 14.0766 12.5927 12.4966 12.666L12.3566 12.6693H4.43796L4.28996 12.664C2.32996 12.5907 0.745293 11.0647 0.669959 9.15534L0.666626 9.01134C0.666626 7.18 2.05329 5.67134 3.85596 5.4L3.93196 5.38934L3.97863 5.26867C4.42063 4.18867 5.34929 3.33134 6.53129 2.92334L6.69329 2.87Z" fill="#2F2F2F"/>
</svg>
