<svg width="16" height="16" viewBox="0 0 16 16" fill="none" xmlns="http://www.w3.org/2000/svg">
<path d="M11.3334 1.33331C12.2174 1.33331 13.0653 1.6845 13.6904 2.30962C14.3155 2.93475 14.6667 3.78259 14.6667 4.66665V11.3333C14.6667 12.2174 14.3155 13.0652 13.6904 13.6903C13.0653 14.3155 12.2174 14.6666 11.3334 14.6666H4.66671C3.78265 14.6666 2.93481 14.3155 2.30968 13.6903C1.68456 13.0652 1.33337 12.2174 1.33337 11.3333V4.66665C1.33337 3.78259 1.68456 2.93475 2.30968 2.30962C2.93481 1.6845 3.78265 1.33331 4.66671 1.33331H11.3334ZM5.33337 6.66665C5.15656 6.66665 4.98699 6.73688 4.86197 6.86191C4.73695 6.98693 4.66671 7.1565 4.66671 7.33331V10.6666C4.66671 10.8435 4.73695 11.013 4.86197 11.1381C4.98699 11.2631 5.15656 11.3333 5.33337 11.3333C5.51019 11.3333 5.67975 11.2631 5.80478 11.1381C5.9298 11.013 6.00004 10.8435 6.00004 10.6666V7.33331C6.00004 7.1565 5.9298 6.98693 5.80478 6.86191C5.67975 6.73688 5.51019 6.66665 5.33337 6.66665ZM9.33337 6.66665C9.06591 6.6665 8.80113 6.72 8.55471 6.82398L8.47137 6.86198C8.37814 6.76877 8.25936 6.7053 8.13006 6.67959C8.00076 6.65388 7.86674 6.66708 7.74494 6.71753C7.62314 6.76797 7.51903 6.8534 7.44577 6.96301C7.37252 7.07261 7.3334 7.20148 7.33337 7.33331V10.6666C7.33337 10.8435 7.40361 11.013 7.52864 11.1381C7.65366 11.2631 7.82323 11.3333 8.00004 11.3333C8.17685 11.3333 8.34642 11.2631 8.47145 11.1381C8.59647 11.013 8.66671 10.8435 8.66671 10.6666V8.66665C8.66671 8.48984 8.73695 8.32027 8.86197 8.19524C8.98699 8.07022 9.15656 7.99998 9.33337 7.99998C9.51018 7.99998 9.67975 8.07022 9.80478 8.19524C9.9298 8.32027 10 8.48984 10 8.66665V10.6666C10 10.8435 10.0703 11.013 10.1953 11.1381C10.3203 11.2631 10.4899 11.3333 10.6667 11.3333C10.8435 11.3333 11.0131 11.2631 11.1381 11.1381C11.2631 11.013 11.3334 10.8435 11.3334 10.6666V8.66665C11.3334 8.13621 11.1227 7.62751 10.7476 7.25243C10.3725 6.87736 9.86381 6.66665 9.33337 6.66665ZM5.33337 4.66665C5.17009 4.66667 5.01248 4.72662 4.89046 4.83512C4.76844 4.94363 4.69048 5.09315 4.67137 5.25531L4.66671 5.33998C4.6669 5.5099 4.73196 5.67334 4.84861 5.79689C4.96525 5.92045 5.12468 5.9948 5.2943 6.00476C5.46393 6.01472 5.63096 5.95953 5.76126 5.85047C5.89156 5.74141 5.97531 5.58671 5.99537 5.41798L6.00004 5.33331C6.00004 5.1565 5.9298 4.98693 5.80478 4.86191C5.67975 4.73688 5.51019 4.66665 5.33337 4.66665Z" fill="#F7F5F4"/>
</svg>
