<svg width="16" height="16" viewBox="0 0 16 16" fill="none" xmlns="http://www.w3.org/2000/svg">
<path d="M8.00004 1.328C6.79318 1.32822 5.60901 1.65605 4.57386 2.27651C3.5387 2.89697 2.69139 3.78679 2.1223 4.85106C1.55322 5.91532 1.28371 7.11411 1.34252 8.31953C1.40133 9.52496 1.78625 10.6918 2.45623 11.6956C3.12622 12.6994 4.05612 13.5026 5.14676 14.0193C6.23739 14.5361 7.44785 14.7471 8.649 14.6298C9.85015 14.5125 10.9969 14.0714 11.967 13.3535C12.9372 12.6356 13.6942 11.6678 14.1574 10.5533C14.3847 10.0067 13.84 9.45734 13.292 9.68C12.3528 10.0605 11.31 10.0997 10.3448 9.79096C9.37965 9.4822 8.55321 8.84495 8.0092 7.99002C7.46519 7.13508 7.238 6.11652 7.36713 5.11144C7.49627 4.10635 7.97357 3.17831 8.71604 2.48867L8.76737 2.43534C9.1347 2.01534 8.8427 1.33334 8.26204 1.33334H8.0847L8.03937 1.32934L8.00004 1.328Z" fill="#222324"/>
</svg>
