<svg width="16" height="16" viewBox="0 0 16 16" fill="none" xmlns="http://www.w3.org/2000/svg">
<path d="M0.666382 9.01116C0.666479 7.13923 2.1063 5.62868 3.93201 5.39007C4.03923 5.10052 4.18029 4.82615 4.35095 4.57171C4.55607 4.26607 4.97003 4.18504 5.27576 4.39007C5.58153 4.59516 5.66347 5.00909 5.45837 5.31487C5.28239 5.57727 5.15609 5.86484 5.08826 6.16839C5.0202 6.47307 4.75006 6.68987 4.43787 6.68987C3.06728 6.68996 2.00047 7.75329 2.00037 9.01116C2.00037 10.2697 3.06733 11.3341 4.43884 11.3364H12.0004C12.3683 11.3365 12.6662 11.6344 12.6664 12.0024C12.6664 12.3705 12.3684 12.6692 12.0004 12.6694H4.43689C2.37924 12.6661 0.666382 11.0538 0.666382 9.01116ZM14.0004 9.67815C14.0004 8.7586 13.2609 8.02115 12.3578 8.02093H11.6976C11.4954 8.02093 11.3037 7.9287 11.1771 7.77093C11.0508 7.61324 11.0025 7.40667 11.0463 7.2094C11.2486 6.29999 10.908 5.34121 10.101 4.69573L10.1 4.69475C9.28671 4.04287 8.13352 3.8262 7.0824 4.14593C6.93961 4.18933 6.79876 4.24354 6.66443 4.30511C6.32976 4.45838 5.93402 4.31065 5.78064 3.976C5.62752 3.64138 5.77418 3.24556 6.10876 3.09221C6.29413 3.00726 6.4902 2.9324 6.69373 2.87054C8.14857 2.42789 9.76243 2.71596 10.933 3.65374C11.8889 4.41822 12.4367 5.52773 12.4369 6.68889C14.0473 6.73127 15.3334 8.05645 15.3334 9.67815C15.3333 10.4974 15.0045 11.2416 14.473 11.7817C14.2148 12.0439 13.793 12.0474 13.5306 11.7895C13.2682 11.5312 13.2646 11.1085 13.5228 10.8461C13.8179 10.5463 14.0003 10.1347 14.0004 9.67815Z" fill="#2F2F2F"/>
<path d="M1.52836 1.52833C1.78871 1.26798 2.21137 1.26798 2.47172 1.52833L14.4717 13.5283C14.7321 13.7887 14.7321 14.2113 14.4717 14.4717C14.2114 14.732 13.7887 14.732 13.5284 14.4717L1.52836 2.47169C1.26801 2.21134 1.26801 1.78868 1.52836 1.52833Z" fill="#2F2F2F"/>
</svg>
