<svg width="16" height="16" viewBox="0 0 16 16" fill="none" xmlns="http://www.w3.org/2000/svg">
<path d="M8.33333 13C8.51014 13 8.67971 13.0702 8.80474 13.1953C8.92976 13.3203 9 13.4899 9 13.6667V15C9 15.1768 8.92976 15.3464 8.80474 15.4714C8.67971 15.5964 8.51014 15.6667 8.33333 15.6667C8.15652 15.6667 7.98695 15.5964 7.86193 15.4714C7.7369 15.3464 7.66667 15.1768 7.66667 15V13.6667C7.66667 13.4899 7.7369 13.3203 7.86193 13.1953C7.98695 13.0702 8.15652 13 8.33333 13ZM5.03333 11.6333C5.15831 11.7584 5.22852 11.9279 5.22852 12.1047C5.22852 12.2814 5.15831 12.451 5.03333 12.576L4.09067 13.5187C4.02917 13.5823 3.95561 13.6331 3.87427 13.6681C3.79293 13.703 3.70545 13.7214 3.61693 13.7222C3.52841 13.7229 3.44063 13.7061 3.3587 13.6725C3.27677 13.639 3.20233 13.5895 3.13974 13.5269C3.07714 13.4643 3.02764 13.3899 2.99412 13.308C2.9606 13.226 2.94373 13.1383 2.9445 13.0497C2.94527 12.9612 2.96366 12.8737 2.9986 12.7924C3.03354 12.7111 3.08433 12.6375 3.148 12.576L4.09067 11.6333C4.21569 11.5084 4.38522 11.4381 4.562 11.4381C4.73878 11.4381 4.90832 11.5084 5.03333 11.6333ZM12.576 11.6333L13.5187 12.576C13.6401 12.7017 13.7073 12.8701 13.7058 13.0449C13.7043 13.2197 13.6342 13.3869 13.5105 13.5105C13.3869 13.6342 13.2197 13.7043 13.0449 13.7058C12.8701 13.7073 12.7017 13.6401 12.576 13.5187L11.6333 12.576C11.5119 12.4503 11.4447 12.2819 11.4462 12.1071C11.4477 11.9323 11.5178 11.7651 11.6415 11.6415C11.7651 11.5178 11.9323 11.4477 12.1071 11.4462C12.2819 11.4447 12.4503 11.5119 12.576 11.6333ZM9.21 5.076C9.63546 5.185 10.0352 5.377 10.3862 5.64097C10.7372 5.90494 11.0326 6.23568 11.2554 6.61418C11.4782 6.99267 11.624 7.41146 11.6844 7.84648C11.7448 8.28151 11.7187 8.72418 11.6075 9.14906C11.4963 9.57395 11.3022 9.97267 11.0364 10.3223C10.7706 10.672 10.4383 10.9656 10.0587 11.1864C9.67904 11.4073 9.25949 11.5509 8.82416 11.609C8.38883 11.6672 7.9463 11.6387 7.522 11.5253C6.67083 11.2978 5.94435 10.7426 5.50137 9.98098C5.0584 9.21938 4.93496 8.31338 5.15805 7.46104C5.38113 6.6087 5.93259 5.87934 6.69188 5.43242C7.45116 4.98549 8.35651 4.85735 9.21 5.076ZM3 7.66667C3.17681 7.66667 3.34638 7.7369 3.4714 7.86193C3.59643 7.98695 3.66667 8.15652 3.66667 8.33333C3.66667 8.51014 3.59643 8.67971 3.4714 8.80474C3.34638 8.92976 3.17681 9 3 9H1.66667C1.48986 9 1.32029 8.92976 1.19526 8.80474C1.07024 8.67971 1 8.51014 1 8.33333C1 8.15652 1.07024 7.98695 1.19526 7.86193C1.32029 7.7369 1.48986 7.66667 1.66667 7.66667H3ZM15 7.66667C15.1768 7.66667 15.3464 7.7369 15.4714 7.86193C15.5964 7.98695 15.6667 8.15652 15.6667 8.33333C15.6667 8.51014 15.5964 8.67971 15.4714 8.80474C15.3464 8.92976 15.1768 9 15 9H13.6667C13.4899 9 13.3203 8.92976 13.1953 8.80474C13.0702 8.67971 13 8.51014 13 8.33333C13 8.15652 13.0702 7.98695 13.1953 7.86193C13.3203 7.7369 13.4899 7.66667 13.6667 7.66667H15ZM4.09067 3.148L5.03333 4.09067C5.15477 4.2164 5.22197 4.3848 5.22045 4.5596C5.21893 4.7344 5.14882 4.90161 5.02521 5.02521C4.90161 5.14882 4.7344 5.21893 4.5596 5.22045C4.3848 5.22197 4.2164 5.15477 4.09067 5.03333L3.148 4.09067C3.02656 3.96493 2.95937 3.79653 2.96088 3.62173C2.9624 3.44693 3.03252 3.27973 3.15612 3.15612C3.27973 3.03252 3.44693 2.9624 3.62173 2.96088C3.79653 2.95937 3.96493 3.02656 4.09067 3.148ZM13.5187 3.148C13.6436 3.27302 13.7139 3.44256 13.7139 3.61933C13.7139 3.79611 13.6436 3.96565 13.5187 4.09067L12.576 5.03333C12.4503 5.15477 12.2819 5.22197 12.1071 5.22045C11.9323 5.21893 11.7651 5.14882 11.6415 5.02521C11.5178 4.90161 11.4477 4.7344 11.4462 4.5596C11.4447 4.3848 11.5119 4.2164 11.6333 4.09067L12.576 3.148C12.701 3.02302 12.8706 2.95281 13.0473 2.95281C13.2241 2.95281 13.3936 3.02302 13.5187 3.148ZM8.33333 1C8.51014 1 8.67971 1.07024 8.80474 1.19526C8.92976 1.32029 9 1.48986 9 1.66667V3C9 3.17681 8.92976 3.34638 8.80474 3.4714C8.67971 3.59643 8.51014 3.66667 8.33333 3.66667C8.15652 3.66667 7.98695 3.59643 7.86193 3.4714C7.7369 3.34638 7.66667 3.17681 7.66667 3V1.66667C7.66667 1.48986 7.7369 1.32029 7.86193 1.19526C7.98695 1.07024 8.15652 1 8.33333 1Z" fill="#F7F5F4"/>
</svg>
