<svg width="16" height="16" viewBox="0 0 16 16" fill="none" xmlns="http://www.w3.org/2000/svg">
<g clip-path="url(#clip0_246_243)">
<path d="M11.9776 7.42735C12.5743 6.80599 12.975 6.02274 13.1297 5.17523C13.2843 4.32771 13.1861 3.45342 12.8473 2.66133C12.5085 1.86924 11.9441 1.19439 11.2244 0.720881C10.5047 0.247374 9.66151 -0.00383948 8.8 -0.00144793H4.8C4.05765 -0.000600981 3.34595 0.29467 2.82104 0.819588C2.29612 1.34451 2.00085 2.05621 2 2.79855V13.3586C2.01035 13.7158 2.09101 14.0675 2.23735 14.3936C2.3837 14.7196 2.59287 15.0136 2.8529 15.2588C3.11294 15.504 3.41874 15.6955 3.75284 15.8224C4.08693 15.9494 4.44277 16.0092 4.8 15.9986H8.8C10.1251 16.048 11.4159 15.5708 12.3903 14.6714C13.3647 13.772 13.9434 12.5234 14 11.1986C13.9887 10.4541 13.7992 9.72318 13.4474 9.06703C13.0955 8.41089 12.5915 7.84863 11.9776 7.42735ZM4.4 2.79855C4.4 2.74602 4.41035 2.69401 4.43045 2.64548C4.45055 2.59695 4.48001 2.55285 4.51716 2.51571C4.5543 2.47857 4.5984 2.4491 4.64693 2.429C4.69546 2.4089 4.74747 2.39855 4.8 2.39855H8.8C9.33043 2.39855 9.83914 2.60927 10.2142 2.98434C10.5893 3.35941 10.8 3.86812 10.8 4.39855C10.8 4.92898 10.5893 5.43769 10.2142 5.81277C9.83914 6.18784 9.33043 6.39855 8.8 6.39855H4.8C4.74747 6.39855 4.69546 6.38821 4.64693 6.3681C4.5984 6.348 4.5543 6.31854 4.51716 6.28139C4.48001 6.24425 4.45055 6.20016 4.43045 6.15163C4.41035 6.1031 4.4 6.05108 4.4 5.99855V2.79855ZM8.8 13.5986H4.8C4.56 13.5986 4.4 13.4546 4.4 13.3586V9.19855C4.4 9.14602 4.41035 9.09401 4.43045 9.04548C4.45055 8.99695 4.48001 8.95285 4.51716 8.91571C4.5543 8.87857 4.5984 8.8491 4.64693 8.829C4.69546 8.8089 4.74747 8.79855 4.8 8.79855H8.8C9.48848 8.7503 10.1683 8.97507 10.6923 9.42422C11.2163 9.87338 11.5424 10.5108 11.6 11.1986C11.5424 11.8863 11.2163 12.5237 10.6923 12.9729C10.1683 13.422 9.48848 13.6468 8.8 13.5986Z" fill="currentColor"/>
</g>
<defs>
<clipPath id="clip0_246_243">
<rect width="16" height="16" fill="white"/>
</clipPath>
</defs>
</svg>
