<svg width="16" height="16" viewBox="0 0 16 16" fill="none" xmlns="http://www.w3.org/2000/svg">
<g clip-path="url(#clip0_248_310)">
<path fill-rule="evenodd" clip-rule="evenodd" d="M2.39905 0.744261C1.97848 0.815301 1.6187 1.00252 1.31049 1.31072C1.06155 1.55967 0.92254 1.78514 0.81486 2.11468C0.714012 2.42327 0.71974 2.13384 0.719804 6.9238C0.719868 11.6805 0.714892 11.4139 0.809276 11.7147C0.921196 12.0714 1.1176 12.3725 1.40508 12.6281C1.64435 12.8408 1.91158 12.9786 2.27174 13.075L2.40774 13.1114L5.36774 13.1166C7.59897 13.1206 8.34941 13.1172 8.41574 13.103C8.55413 13.0733 8.68472 12.9983 8.80097 12.8818C9.21801 12.4638 9.05894 11.7749 8.49612 11.5615C8.40788 11.528 8.40323 11.528 5.50374 11.52C2.74446 11.5124 2.5971 11.5105 2.54691 11.4831C2.51784 11.4673 2.46568 11.425 2.43097 11.3893C2.3202 11.2751 2.31974 11.2707 2.31974 10.3179V9.47367L4.46724 7.46796L4.52737 7.52996C4.56044 7.56407 5.13984 8.20629 5.81489 8.95714C7.11025 10.3979 7.11792 10.4057 7.31675 10.475C7.44382 10.5193 7.72091 10.5143 7.84518 10.4654C8.05915 10.3812 8.24433 10.2019 8.32075 10.0051C8.37452 9.86663 8.38259 9.62248 8.33819 9.47672C8.31998 9.41692 8.28445 9.33557 8.25923 9.29597C8.1783 9.16888 5.05073 5.70898 4.96537 5.65213C4.82891 5.56124 4.71732 5.5298 4.52774 5.52884C4.32574 5.5278 4.21868 5.55786 4.08086 5.65434C4.02928 5.69044 3.61372 6.0686 3.1574 6.49471L2.32774 7.26944L2.32328 4.98271C2.32016 3.37748 2.324 2.6749 2.33619 2.62525C2.36857 2.49349 2.48451 2.37432 2.61574 2.33791C2.66188 2.32511 3.86268 2.32013 6.92083 2.32007C11.6449 2.31996 11.2647 2.3105 11.389 2.4312C11.5235 2.56168 11.5107 2.34255 11.5198 4.67997C11.5289 7.01328 11.5187 6.82687 11.6489 7.02189C11.838 7.30514 12.1495 7.43757 12.4816 7.37599C12.768 7.32288 13.0436 7.056 13.1041 6.77312C13.1151 6.72162 13.119 5.98317 13.1158 4.55197L13.1109 2.40797L13.0746 2.27197C12.9787 1.91252 12.8406 1.64469 12.6278 1.40532C12.3722 1.11783 12.0712 0.921429 11.7145 0.809509C11.4133 0.715013 11.6839 0.719925 6.90374 0.721989C3.43316 0.723477 2.49459 0.728117 2.39905 0.744261ZM8.83974 3.48173C8.81334 3.48559 8.73853 3.50008 8.67349 3.51396C8.16584 3.62216 7.75694 4.03548 7.64656 4.55197C7.61547 4.69743 7.61971 4.97746 7.65517 5.11997C7.78984 5.66144 8.2192 6.06204 8.75446 6.14559C8.89912 6.16818 9.1735 6.15508 9.30374 6.11938C9.51518 6.0614 9.73627 5.93607 9.88657 5.78895C10.3143 5.37024 10.422 4.76093 10.1613 4.23423C10.0217 3.95232 9.83193 3.75996 9.55974 3.62447C9.34736 3.51876 9.02448 3.45476 8.83974 3.48173ZM12.5517 8.70191C12.3391 8.76316 12.1552 8.92141 12.0525 9.13157L11.9917 9.25597L11.983 12.5489L11.7611 12.3305C11.5695 12.1419 11.522 12.1039 11.4135 12.0523C11.2983 11.9976 11.2738 11.992 11.1219 11.9864C10.9195 11.9789 10.7921 12.0089 10.6593 12.0954C10.258 12.3568 10.1545 12.8618 10.4246 13.24C10.5232 13.3781 12.277 15.1211 12.3723 15.1758C12.609 15.3115 12.9034 15.3162 13.1597 15.1885C13.2208 15.1581 13.4548 14.9344 14.1496 14.2423C14.65 13.7438 15.0905 13.2944 15.1286 13.2436C15.2229 13.1176 15.2656 12.9977 15.2752 12.832C15.2925 12.5315 15.1676 12.2747 14.9253 12.1129C14.6734 11.9446 14.3082 11.9381 14.0557 12.0973C14.0117 12.125 13.8878 12.2345 13.7803 12.3405L13.5848 12.5333L13.5756 9.30397L13.5405 9.21199C13.4431 8.95616 13.2325 8.76144 12.9832 8.6965C12.861 8.66468 12.6728 8.66704 12.5517 8.70191Z" fill="currentColor"/>
</g>
<defs>
<clipPath id="clip0_248_310">
<rect width="16" height="16" fill="white"/>
</clipPath>
</defs>
</svg>
