<svg width="16" height="16" viewBox="0 0 16 16" fill="none" xmlns="http://www.w3.org/2000/svg">
<g clip-path="url(#clip0_229_6930)">
<path fill-rule="evenodd" clip-rule="evenodd" d="M6.84027 0.316895C7.10286 0.161284 7.39408 0.0601016 7.69658 0.019371C7.99908 -0.0213596 8.30669 -0.000805177 8.60109 0.0798104C8.89548 0.160426 9.17065 0.299454 9.4102 0.488618C9.64975 0.677782 9.84879 0.913213 9.99547 1.18089L15.5955 11.2289L15.5987 11.2337C15.8681 11.7234 16.0053 12.2748 15.9967 12.8337C15.9881 13.3925 15.8339 13.9395 15.5495 14.4206C15.2651 14.9018 14.8602 15.3005 14.3747 15.5775C13.8893 15.8544 13.34 16.0001 12.7811 16.0001H3.21627C2.65795 16 2.10928 15.8544 1.62436 15.5777C1.13944 15.301 0.734996 14.9027 0.450907 14.4221C0.166817 13.9414 0.0128862 13.395 0.00428739 12.8368C-0.00431143 12.2785 0.132719 11.7277 0.40187 11.2385L0.40347 11.2353L6.00507 1.17929C6.20174 0.822611 6.49007 0.524895 6.84027 0.316895ZM8.80027 5.20009C8.80027 4.98792 8.71598 4.78444 8.56596 4.63441C8.41593 4.48438 8.21244 4.40009 8.00027 4.40009C7.7881 4.40009 7.58461 4.48438 7.43459 4.63441C7.28456 4.78444 7.20027 4.98792 7.20027 5.20009V8.40009C7.20027 8.61227 7.28456 8.81575 7.43459 8.96578C7.58461 9.11581 7.7881 9.2001 8.00027 9.2001C8.21244 9.2001 8.41593 9.11581 8.56596 8.96578C8.71598 8.81575 8.80027 8.61227 8.80027 8.40009V5.20009ZM8.00027 10.5217C8.31853 10.5217 8.62375 10.6481 8.8488 10.8732C9.07384 11.0982 9.20027 11.4034 9.20027 11.7217C9.20027 12.04 9.07384 12.3452 8.8488 12.5702C8.62375 12.7953 8.31853 12.9217 8.00027 12.9217C7.68201 12.9217 7.37679 12.7953 7.15174 12.5702C6.9267 12.3452 6.80027 12.04 6.80027 11.7217C6.80027 11.4034 6.9267 11.0982 7.15174 10.8732C7.37679 10.6481 7.68201 10.5217 8.00027 10.5217Z" fill="currentColor"/>
</g>
<defs>
<clipPath id="clip0_229_6930">
<rect width="16" height="16" fill="white"/>
</clipPath>
</defs>
</svg>
