<svg width="16" height="16" viewBox="0 0 16 16" fill="none" xmlns="http://www.w3.org/2000/svg">
<path fill-rule="evenodd" clip-rule="evenodd" d="M2.01582 2.17058C1.63139 2.23183 1.32571 2.38375 1.09214 2.62963C0.956893 2.77202 0.876989 2.89267 0.814317 3.04919C0.713053 3.3021 0.719821 2.94741 0.719821 7.99999C0.719821 13.0526 0.713053 12.6979 0.814317 12.9508C0.979277 13.3627 1.38411 13.6912 1.86382 13.8023C1.98723 13.8309 2.20724 13.832 7.99982 13.832C13.7735 13.832 14.0128 13.8308 14.1358 13.8026C14.6115 13.6933 15.0211 13.3609 15.1853 12.9508C15.2866 12.6979 15.2798 13.0526 15.2798 7.99999C15.2798 2.94741 15.2866 3.3021 15.1853 3.04919C15.0243 2.64707 14.6467 2.33303 14.1678 2.20304L14.0398 2.16829L8.04782 2.16624C4.75222 2.16512 2.03782 2.16706 2.01582 2.17058ZM2.31982 5.91199C2.31982 7.09559 2.32264 8.06399 2.32606 8.06399C2.3295 8.06399 2.8527 7.57835 3.48873 6.98479C4.33235 6.19752 4.66968 5.89253 4.73579 5.8573C5.0304 5.70027 5.39979 5.7377 5.63529 5.94845C5.67187 5.9812 6.96411 7.41018 8.50691 9.12399L11.312 12.24H13.6798V3.75999H2.31982V5.91199ZM10.3562 4.68907C9.6526 4.75715 9.07596 5.33952 9.00936 6.04935C8.91937 7.00832 9.7084 7.8008 10.6638 7.71106C11.1993 7.66075 11.6639 7.33365 11.897 6.84291C12.0821 6.45311 12.0818 5.94619 11.8962 5.55535C11.6627 5.06371 11.2033 4.74082 10.6625 4.68824C10.5752 4.67975 10.5002 4.6736 10.4958 4.67458C10.4914 4.67555 10.4286 4.68208 10.3562 4.68907ZM3.69219 8.9877L2.32225 10.264L2.31982 12.24H9.152L7.11817 9.97999C5.99956 8.73699 5.07936 7.71807 5.07324 7.7157C5.06713 7.71335 4.44566 8.28575 3.69219 8.9877Z" fill="currentColor"/>
</svg>
