<svg width="16" height="16" viewBox="0 0 16 16" fill="none" xmlns="http://www.w3.org/2000/svg">
<path fill-rule="evenodd" clip-rule="evenodd" d="M2.01582 2.17055C1.63139 2.2318 1.32571 2.38372 1.09214 2.6296C0.956893 2.77199 0.876989 2.89264 0.814317 3.04916C0.713053 3.30207 0.719821 2.94738 0.719821 7.99996C0.719821 13.0526 0.713053 12.6979 0.814317 12.9508C0.979277 13.3627 1.38411 13.6912 1.86382 13.8023C1.98723 13.8309 2.20724 13.832 7.99982 13.832C13.7735 13.832 14.0128 13.8308 14.1358 13.8026C14.6115 13.6933 15.0211 13.3609 15.1853 12.9508C15.2866 12.6979 15.2798 13.0526 15.2798 7.99996C15.2798 2.94738 15.2866 3.30207 15.1853 3.04916C15.0243 2.64704 14.6467 2.333 14.1678 2.20301L14.0398 2.16826L8.04782 2.16621C4.75222 2.16509 2.03782 2.16703 2.01582 2.17055ZM2.31982 5.91196C2.31982 7.09556 2.32264 8.06396 2.32606 8.06396C2.3295 8.06396 2.8527 7.57832 3.48873 6.98476C4.33235 6.19749 4.66968 5.8925 4.73579 5.85727C5.0304 5.70024 5.39979 5.73767 5.63529 5.94842C5.67187 5.98117 6.96411 7.41015 8.50691 9.12396L11.312 12.24H13.6798V3.75996H2.31982V5.91196ZM10.3562 4.68904C9.6526 4.75712 9.07596 5.33949 9.00936 6.04932C8.91937 7.00829 9.7084 7.80077 10.6638 7.71103C11.1993 7.66072 11.6639 7.33362 11.897 6.84288C12.0821 6.45308 12.0818 5.94616 11.8962 5.55532C11.6627 5.06368 11.2033 4.74079 10.6625 4.68821C10.5752 4.67972 10.5002 4.67357 10.4958 4.67455C10.4914 4.67552 10.4286 4.68205 10.3562 4.68904ZM3.69219 8.98767L2.32225 10.264L2.31982 12.24H9.152L7.11817 9.97996C5.99956 8.73696 5.07936 7.71804 5.07324 7.71567C5.06713 7.71332 4.44566 8.28572 3.69219 8.98767Z" fill="currentColor"/>
</svg>
