<svg width="16" height="16" viewBox="0 0 16 16" fill="none" xmlns="http://www.w3.org/2000/svg">
<g clip-path="url(#clip0_148_497)">
<path fill-rule="evenodd" clip-rule="evenodd" d="M2.63185 0.744005C2.14073 0.822165 1.72241 1.03373 1.37801 1.37813C1.02831 1.72784 0.819673 2.14472 0.742505 2.64797C0.681017 3.049 0.739801 3.29821 0.946713 3.5137C1.19866 3.77608 1.58054 3.83501 1.90574 3.66167C2.03068 3.59508 2.18025 3.43634 2.24162 3.3052C2.28807 3.20592 2.29865 3.15772 2.33372 2.88508C2.35338 2.73218 2.40906 2.61628 2.51262 2.51274C2.61615 2.40919 2.73206 2.35351 2.88495 2.33385C3.15759 2.29877 3.2058 2.2882 3.30508 2.24175C3.57505 2.11541 3.75985 1.82212 3.75985 1.51997C3.75985 1.15882 3.50961 0.835749 3.15918 0.744469C3.04694 0.715237 2.81394 0.715029 2.63185 0.744005ZM6.35609 0.744645C6.22385 0.780245 6.11278 0.844421 6.00612 0.946837C5.67663 1.26324 5.67663 1.77671 6.00612 2.09311C6.06039 2.14522 6.14226 2.20685 6.18806 2.23005C6.3433 2.30872 6.42331 2.31997 6.82721 2.31997H7.19985V2.69261C7.19985 3.09652 7.2111 3.17652 7.28977 3.33176C7.3469 3.4445 7.5013 3.60164 7.61396 3.66167C7.85906 3.79232 8.14063 3.79232 8.38574 3.66167C8.49839 3.60164 8.65279 3.4445 8.70993 3.33176C8.7886 3.17652 8.79985 3.09652 8.79985 2.69261V2.31997H9.17249C9.57639 2.31997 9.65639 2.30872 9.81164 2.23005C9.92438 2.17292 10.0815 2.01852 10.1415 1.90586C10.3149 1.58066 10.256 1.19879 9.99358 0.946837C9.88438 0.841973 9.7753 0.779925 9.63676 0.743845C9.50393 0.709237 6.48478 0.709973 6.35609 0.744645ZM12.8361 0.744645C12.7038 0.780245 12.5928 0.844421 12.4861 0.946837C12.2237 1.19879 12.1648 1.58066 12.3382 1.90586C12.4047 2.0308 12.5635 2.18037 12.6946 2.24175C12.7939 2.2882 12.8421 2.29877 13.1147 2.33385C13.2676 2.35351 13.3835 2.40919 13.4871 2.51274C13.5906 2.61628 13.6463 2.73218 13.666 2.88508C13.701 3.15772 13.7116 3.20592 13.7581 3.3052C13.8194 3.43634 13.969 3.59508 14.094 3.66167C14.4192 3.83501 14.801 3.77608 15.053 3.5137C15.2599 3.29821 15.3187 3.049 15.2572 2.64797C15.2142 2.36786 15.1457 2.15538 15.023 1.92202C14.7287 1.3621 14.2067 0.947397 13.5998 0.791445C13.3283 0.721653 12.9968 0.701349 12.8361 0.744645ZM7.79609 5.06464C7.52194 5.13847 7.2958 5.36629 7.22434 5.64065C7.20407 5.71847 7.19985 5.86109 7.19985 6.46733V7.19997H6.46721C5.6618 7.19997 5.63318 7.20276 5.45396 7.29828C5.3413 7.35831 5.1869 7.51544 5.12977 7.62818C5.01058 7.86338 5.01058 8.13656 5.12977 8.37176C5.1869 8.4845 5.3413 8.64164 5.45396 8.70167C5.63318 8.79719 5.6618 8.79997 6.46721 8.79997H7.19985V9.53261C7.19985 10.3265 7.2029 10.3603 7.28977 10.5318C7.3469 10.6445 7.5013 10.8016 7.61396 10.8617C7.85906 10.9923 8.14063 10.9923 8.38574 10.8617C8.49839 10.8016 8.65279 10.6445 8.70993 10.5318C8.79679 10.3603 8.79985 10.3265 8.79985 9.53261V8.79997H9.53249C10.3379 8.79997 10.3665 8.79719 10.5457 8.70167C10.6584 8.64164 10.8128 8.4845 10.8699 8.37176C10.9921 8.13061 10.9891 7.85332 10.8615 7.61408C10.8015 7.50143 10.6444 7.34703 10.5316 7.28989C10.3602 7.20303 10.3263 7.19997 9.53249 7.19997H8.79985V6.46733C8.79985 5.67349 8.79679 5.63962 8.70993 5.46818C8.65279 5.35544 8.49839 5.19831 8.38574 5.13828C8.20708 5.04305 7.98105 5.01482 7.79609 5.06464ZM1.31609 5.78464C1.04194 5.85847 0.815801 6.08629 0.744345 6.36064C0.708009 6.50015 0.707433 9.49757 0.743721 9.63689C0.779801 9.77543 0.841849 9.8845 0.946713 9.9937C1.19866 10.2561 1.58054 10.315 1.90574 10.1417C2.01839 10.0816 2.17279 9.9245 2.22993 9.81177C2.3086 9.65652 2.31985 9.57652 2.31985 9.17261V8.79997H2.69249C3.10508 8.79997 3.18343 8.78818 3.34574 8.70167C3.45839 8.64164 3.61279 8.4845 3.66993 8.37176C3.78911 8.13656 3.78911 7.86338 3.66993 7.62818C3.61279 7.51544 3.45839 7.35831 3.34574 7.29828C3.18343 7.21176 3.10508 7.19997 2.69249 7.19997H2.31985V6.82733C2.31985 6.42343 2.3086 6.34343 2.22993 6.18818C2.17279 6.07544 2.01839 5.91831 1.90574 5.85828C1.72708 5.76304 1.50105 5.73482 1.31609 5.78464ZM14.2761 5.78464C14.0019 5.85847 13.7758 6.08629 13.7043 6.36064C13.6857 6.43207 13.6798 6.54434 13.6798 6.82733V7.19997H13.3072C12.8946 7.19997 12.8163 7.21176 12.654 7.29828C12.5413 7.35831 12.3869 7.51544 12.3298 7.62818C12.2411 7.80322 12.2164 8.01535 12.2637 8.19688C12.3365 8.47631 12.5626 8.70308 12.8405 8.77548C12.9119 8.79409 13.0242 8.79997 13.3072 8.79997H13.6798V9.17261C13.6798 9.57652 13.6911 9.65652 13.7698 9.81177C13.8269 9.9245 13.9813 10.0816 14.094 10.1417C14.4192 10.315 14.801 10.2561 15.053 9.9937C15.1578 9.8845 15.2199 9.77543 15.256 9.63689C15.2917 9.49959 15.2917 6.50036 15.256 6.36306C15.1832 6.08364 14.9571 5.85687 14.6792 5.78447C14.5638 5.75442 14.388 5.75448 14.2761 5.78464ZM1.31609 12.2646C1.04194 12.3385 0.815801 12.5663 0.744345 12.8406C0.666297 13.1403 0.767721 13.6805 0.976665 14.0779C1.35823 14.8038 2.12838 15.278 2.92849 15.2797C3.17921 15.2802 3.37135 15.202 3.53298 15.0337C3.78082 14.7756 3.83066 14.4114 3.66154 14.0941C3.59495 13.9691 3.43622 13.8196 3.30508 13.7582C3.2058 13.7117 3.15759 13.7012 2.88495 13.6661C2.73206 13.6464 2.61615 13.5908 2.51262 13.4872C2.40906 13.3837 2.35338 13.2678 2.33372 13.1149C2.32559 13.0517 2.31257 12.9549 2.30479 12.8997C2.26377 12.6092 2.01767 12.3422 1.71918 12.2645C1.60378 12.2344 1.42804 12.2345 1.31609 12.2646ZM7.79609 12.2646C7.52194 12.3385 7.2958 12.5663 7.22434 12.8406C7.20574 12.9121 7.19985 13.0243 7.19985 13.3073V13.68H6.82721C6.41462 13.68 6.33626 13.6918 6.17396 13.7783C6.0613 13.8383 5.9069 13.9954 5.84977 14.1082C5.76108 14.2832 5.73644 14.4953 5.78372 14.6769C5.85649 14.9563 6.08257 15.1831 6.36052 15.2555C6.50204 15.2923 9.49766 15.2923 9.63918 15.2555C9.781 15.2185 9.90764 15.1434 10.013 15.0337C10.2562 14.7804 10.3092 14.4225 10.1499 14.1082C10.0928 13.9954 9.93839 13.8383 9.82574 13.7783C9.66343 13.6918 9.58508 13.68 9.17249 13.68H8.79985V13.3073C8.79985 12.9034 8.7886 12.8234 8.70993 12.6682C8.65279 12.5554 8.49839 12.3983 8.38574 12.3383C8.20708 12.243 7.98105 12.2148 7.79609 12.2646ZM14.2736 12.2653C13.9805 12.3441 13.7354 12.6128 13.6949 12.8997C13.6871 12.9549 13.6741 13.0517 13.666 13.1149C13.6463 13.2678 13.5906 13.3837 13.4871 13.4872C13.3835 13.5908 13.2676 13.6464 13.1147 13.6661C12.8421 13.7012 12.7939 13.7117 12.6946 13.7582C12.5635 13.8196 12.4047 13.9691 12.3382 14.0941C12.169 14.4114 12.2189 14.7756 12.4667 15.0337C12.6781 15.2538 12.9413 15.3203 13.3518 15.2573C13.8551 15.1801 14.272 14.9715 14.6217 14.6218C14.9714 14.2721 15.18 13.8552 15.2572 13.352C15.3187 12.9509 15.2599 12.7017 15.053 12.4862C14.8521 12.277 14.5493 12.1911 14.2736 12.2653Z" fill="currentColor"/>
</g>
<defs>
<clipPath id="clip0_148_497">
<rect width="16" height="16" fill="white"/>
</clipPath>
</defs>
</svg>
