<svg width="16" height="16" viewBox="0 0 16 16" fill="none" xmlns="http://www.w3.org/2000/svg">
<g clip-path="url(#clip0_231_7205)">
<path fill-rule="evenodd" clip-rule="evenodd" d="M0 8C0 5.87827 0.842855 3.84344 2.34315 2.34315C3.84344 0.842855 5.87827 0 8 0C10.1217 0 12.1566 0.842855 13.6569 2.34315C15.1571 3.84344 16 5.87827 16 8C16 10.1217 15.1571 12.1566 13.6569 13.6569C12.1566 15.1571 10.1217 16 8 16C5.87827 16 3.84344 15.1571 2.34315 13.6569C0.842855 12.1566 0 10.1217 0 8ZM12.048 5.3296C12.182 5.10487 12.2226 4.83655 12.1611 4.58222C12.0996 4.32789 11.9408 4.10781 11.7189 3.9692C11.4969 3.83059 11.2295 3.7845 10.974 3.84081C10.7184 3.89712 10.4951 4.05135 10.352 4.2704L7.0176 9.6048L5.5072 8.0928C5.41433 7.99993 5.30408 7.92626 5.18273 7.876C5.06139 7.82574 4.93134 7.79987 4.8 7.79987C4.66866 7.79987 4.53861 7.82574 4.41727 7.876C4.29592 7.92626 4.18567 7.99993 4.0928 8.0928C3.99993 8.18567 3.92626 8.29592 3.876 8.41727C3.82574 8.53861 3.79987 8.66866 3.79987 8.8C3.79987 8.93134 3.82574 9.06139 3.876 9.18273C3.92626 9.30408 3.99993 9.41433 4.0928 9.5072L6.4928 11.9072C6.5991 12.0136 6.72804 12.0947 6.87002 12.1444C7.012 12.1941 7.16337 12.2112 7.31284 12.1942C7.46232 12.1773 7.60605 12.1269 7.73334 12.0467C7.86062 11.9666 7.96818 11.8587 8.048 11.7312L12.048 5.3312V5.3296Z" fill="currentColor"/>
</g>
<defs>
<clipPath id="clip0_231_7205">
<rect width="16" height="16" fill="white"/>
</clipPath>
</defs>
</svg>
