<svg width="16" height="16" viewBox="0 0 16 16" fill="none" xmlns="http://www.w3.org/2000/svg">
<g clip-path="url(#clip0_47_2617)">
<path fill-rule="evenodd" clip-rule="evenodd" d="M2.63166 0.744024C2.14054 0.822184 1.72222 1.03375 1.37782 1.37815C0.499841 2.25614 0.500433 3.66444 1.37917 4.54318C1.55517 4.71918 1.7484 4.85729 1.97966 4.97238L2.15966 5.06194V10.938L1.97966 11.0276C0.593297 11.7175 0.289265 13.5333 1.37782 14.6218C2.25552 15.4995 3.6644 15.4989 4.54285 14.6205C4.71885 14.4445 4.85696 14.2513 4.97205 14.02L5.06162 13.84H10.9377L11.0273 14.02C11.7171 15.4061 13.5332 15.7102 14.6215 14.6218C15.4992 13.7441 15.4986 12.3353 14.6202 11.4568C14.4442 11.2808 14.2509 11.1427 14.0197 11.0276L13.8397 10.938V5.06194L14.0197 4.97238C15.4058 4.2826 15.7099 2.4665 14.6215 1.37815C13.7438 0.500456 12.3349 0.501064 11.4565 1.3795C11.2805 1.5555 11.1424 1.74873 11.0273 1.97999L10.9377 2.15999H5.06162L4.97205 1.97999C4.58189 1.19596 3.8061 0.714856 2.94366 0.72212C2.84246 0.722968 2.70206 0.732824 2.63166 0.744024ZM2.83448 2.33711C2.65219 2.37298 2.46328 2.51905 2.38882 2.6817C2.27248 2.93582 2.32002 3.21482 2.51243 3.40722C2.76179 3.6566 3.15754 3.6566 3.4069 3.40722C3.76816 3.04596 3.57627 2.43169 3.0723 2.33612C2.97533 2.31772 2.9321 2.3179 2.83448 2.33711ZM12.9145 2.33711C12.7322 2.37298 12.5433 2.51905 12.4688 2.6817C12.3525 2.93582 12.4 3.21482 12.5924 3.40722C12.8418 3.6566 13.2375 3.6566 13.4869 3.40722C13.8482 3.04596 13.6563 2.43169 13.1523 2.33612C13.0553 2.31772 13.0121 2.3179 12.9145 2.33711ZM4.97205 3.93999C4.85672 4.17175 4.7188 4.36454 4.5415 4.54183C4.36421 4.71913 4.17142 4.85705 3.93966 4.97238L3.75966 5.06194V10.938L3.93966 11.0276C4.39683 11.2551 4.74454 11.6028 4.97205 12.06L5.06162 12.24H10.9377L11.0273 12.06C11.1426 11.8282 11.2805 11.6354 11.4578 11.4582C11.6351 11.2809 11.8279 11.1429 12.0597 11.0276L12.2397 10.938V5.06194L12.0597 4.97238C11.6025 4.74487 11.2548 4.39716 11.0273 3.93999L10.9377 3.75999H5.06162L4.97205 3.93999ZM5.6359 5.06466C5.36176 5.13849 5.13562 5.36631 5.06416 5.64066C5.02813 5.77903 5.02814 6.98903 5.06419 7.12743C5.09939 7.26255 5.16186 7.36898 5.27166 7.48095C5.58029 7.79561 6.09096 7.79934 6.40077 7.48919C6.58032 7.30945 6.63966 7.14726 6.63966 6.83634V6.63999H7.19966V9.35999H7.00302C6.6913 9.35999 6.53952 9.41465 6.3587 9.59199C6.17626 9.77095 6.09237 10.0194 6.12779 10.276C6.17027 10.5836 6.41304 10.8575 6.71222 10.9355C6.85323 10.9722 9.1461 10.9722 9.2871 10.9355C9.58629 10.8575 9.82906 10.5836 9.87154 10.276C9.90696 10.0194 9.82307 9.77095 9.64062 9.59199C9.45981 9.41465 9.30803 9.35999 8.9963 9.35999H8.79966V6.63999H9.35966V6.83663C9.35966 7.14836 9.41432 7.30014 9.59166 7.48095C10.0186 7.91625 10.7678 7.72449 10.9304 7.1383C10.9565 7.04394 10.9597 6.96351 10.9597 6.3837C10.9597 5.6699 10.9555 5.63076 10.8614 5.4541C10.8013 5.34145 10.6442 5.18705 10.5315 5.12991C10.3453 5.03558 10.4689 5.0399 7.9923 5.04105C6.08939 5.04193 5.70603 5.04577 5.6359 5.06466ZM2.83448 12.4171C2.65219 12.453 2.46328 12.599 2.38882 12.7617C2.27248 13.0158 2.32002 13.2948 2.51243 13.4872C2.76179 13.7366 3.15754 13.7366 3.4069 13.4872C3.76816 13.126 3.57627 12.5117 3.0723 12.4161C2.97533 12.3977 2.9321 12.3979 2.83448 12.4171ZM12.9145 12.4171C12.7322 12.453 12.5433 12.599 12.4688 12.7617C12.3525 13.0158 12.4 13.2948 12.5924 13.4872C12.8418 13.7366 13.2375 13.7366 13.4869 13.4872C13.8482 13.126 13.6563 12.5117 13.1523 12.4161C13.0553 12.3977 13.0121 12.3979 12.9145 12.4171Z" fill="rgb(36 38 53)"/>
</g>
<defs>
<clipPath id="clip0_47_2617">
<rect width="16" height="16" fill="white"/>
</clipPath>
</defs>
</svg>
