<svg width="16" height="16" viewBox="0 0 16 16" fill="none" xmlns="http://www.w3.org/2000/svg">
<g clip-path="url(#clip0_142_939)">
<path fill-rule="evenodd" clip-rule="evenodd" d="M2.63166 0.744085C2.14054 0.822245 1.72222 1.03381 1.37782 1.37821C0.499841 2.2562 0.500433 3.6645 1.37917 4.54324C1.55517 4.71924 1.7484 4.85735 1.97966 4.97244L2.15966 5.062V10.9381L1.97966 11.0277C0.593297 11.7176 0.289265 13.5334 1.37782 14.6219C2.25552 15.4996 3.6644 15.499 4.54285 14.6206C4.71885 14.4446 4.85696 14.2514 4.97205 14.0201L5.06162 13.8401H10.9377L11.0273 14.0201C11.7171 15.4062 13.5332 15.7103 14.6215 14.6219C15.4992 13.7442 15.4986 12.3354 14.6202 11.4569C14.4442 11.2809 14.2509 11.1428 14.0197 11.0277L13.8397 10.9381V5.062L14.0197 4.97244C15.4058 4.28266 15.7099 2.46656 14.6215 1.37821C13.7438 0.500517 12.3349 0.501125 11.4565 1.37956C11.2805 1.55556 11.1424 1.74879 11.0273 1.98005L10.9377 2.16005H5.06162L4.97205 1.98005C4.58189 1.19602 3.8061 0.714917 2.94366 0.722181C2.84246 0.723029 2.70206 0.732885 2.63166 0.744085ZM2.83448 2.33717C2.65219 2.37304 2.46328 2.51911 2.38882 2.68176C2.27248 2.93588 2.32002 3.21488 2.51243 3.40728C2.76179 3.65666 3.15754 3.65666 3.4069 3.40728C3.76816 3.04602 3.57627 2.43175 3.0723 2.33618C2.97533 2.31778 2.9321 2.31796 2.83448 2.33717ZM12.9145 2.33717C12.7322 2.37304 12.5433 2.51911 12.4688 2.68176C12.3525 2.93588 12.4 3.21488 12.5924 3.40728C12.8418 3.65666 13.2375 3.65666 13.4869 3.40728C13.8482 3.04602 13.6563 2.43175 13.1523 2.33618C13.0553 2.31778 13.0121 2.31796 12.9145 2.33717ZM4.97205 3.94005C4.85672 4.17181 4.7188 4.3646 4.5415 4.54189C4.36421 4.71919 4.17142 4.85711 3.93966 4.97244L3.75966 5.062V10.9381L3.93966 11.0277C4.39683 11.2552 4.74454 11.6029 4.97205 12.0601L5.06162 12.2401H10.9377L11.0273 12.0601C11.1426 11.8283 11.2805 11.6355 11.4578 11.4583C11.6351 11.281 11.8279 11.143 12.0597 11.0277L12.2397 10.9381V5.062L12.0597 4.97244C11.6025 4.74493 11.2548 4.39722 11.0273 3.94005L10.9377 3.76005H5.06162L4.97205 3.94005ZM5.6359 5.06472C5.36176 5.13855 5.13562 5.36637 5.06416 5.64072C5.02813 5.77909 5.02814 6.98909 5.06419 7.12749C5.09939 7.26261 5.16186 7.36904 5.27166 7.48101C5.58029 7.79567 6.09096 7.7994 6.40077 7.48925C6.58032 7.30951 6.63966 7.14732 6.63966 6.8364V6.64005H7.19966V9.36005H7.00302C6.6913 9.36005 6.53952 9.41471 6.3587 9.59205C6.17626 9.77101 6.09237 10.0195 6.12779 10.2761C6.17027 10.5837 6.41304 10.8576 6.71222 10.9356C6.85323 10.9723 9.1461 10.9723 9.2871 10.9356C9.58629 10.8576 9.82906 10.5837 9.87154 10.2761C9.90696 10.0195 9.82307 9.77101 9.64062 9.59205C9.45981 9.41471 9.30803 9.36005 8.9963 9.36005H8.79966V6.64005H9.35966V6.83669C9.35966 7.14842 9.41432 7.3002 9.59166 7.48101C10.0186 7.91631 10.7678 7.72455 10.9304 7.13836C10.9565 7.044 10.9597 6.96357 10.9597 6.38376C10.9597 5.66996 10.9555 5.63082 10.8614 5.45416C10.8013 5.34151 10.6442 5.18711 10.5315 5.12997C10.3453 5.03564 10.4689 5.03996 7.9923 5.04111C6.08939 5.04199 5.70603 5.04583 5.6359 5.06472ZM2.83448 12.4172C2.65219 12.4531 2.46328 12.5991 2.38882 12.7618C2.27248 13.0159 2.32002 13.2949 2.51243 13.4873C2.76179 13.7367 3.15754 13.7367 3.4069 13.4873C3.76816 13.1261 3.57627 12.5118 3.0723 12.4162C2.97533 12.3978 2.9321 12.398 2.83448 12.4172ZM12.9145 12.4172C12.7322 12.4531 12.5433 12.5991 12.4688 12.7618C12.3525 13.0159 12.4 13.2949 12.5924 13.4873C12.8418 13.7367 13.2375 13.7367 13.4869 13.4873C13.8482 13.1261 13.6563 12.5118 13.1523 12.4162C13.0553 12.3978 13.0121 12.398 12.9145 12.4172Z" fill="currentColor"/>
</g>
<defs>
<clipPath id="clip0_142_939">
<rect width="16" height="16" fill="white"/>
</clipPath>
</defs>
</svg>
